<svg width="18" height="23" viewBox="0 0 18 23" fill="none" xmlns="http://www.w3.org/2000/svg">
<path d="M17.2308 10.5783C17.2024 10.4581 17.1448 10.3468 17.063 10.2542C16.9812 10.1617 16.8779 10.0907 16.7621 10.0477L11.3611 8.02178L12.7355 1.14709C12.7666 0.987363 12.745 0.821844 12.6738 0.675513C12.6026 0.529182 12.4857 0.40998 12.3408 0.335894C12.1959 0.261808 12.0309 0.236858 11.8705 0.264809C11.7102 0.29276 11.5634 0.372095 11.4521 0.490843L0.952082 11.7408C0.866802 11.8307 0.805109 11.9403 0.772516 12.0598C0.739923 12.1793 0.737444 12.3051 0.7653 12.4258C0.793157 12.5465 0.850482 12.6584 0.932153 12.7516C1.01382 12.8447 1.1173 12.9162 1.23333 12.9596L6.63614 14.9855L5.26552 21.8527C5.2344 22.0124 5.25607 22.178 5.32727 22.3243C5.39848 22.4706 5.51534 22.5898 5.66023 22.6639C5.80512 22.738 5.97018 22.763 6.1305 22.735C6.29081 22.7071 6.43769 22.6277 6.54896 22.509L17.049 11.259C17.1327 11.1691 17.1931 11.06 17.2248 10.9413C17.2565 10.8227 17.2586 10.698 17.2308 10.5783ZM7.25396 19.5624L8.23552 14.6518C8.27065 14.4776 8.24281 14.2966 8.15697 14.1411C8.07112 13.9855 7.93285 13.8655 7.76677 13.8024L2.81302 11.9415L10.7461 3.44209L9.76552 8.35272C9.73039 8.52688 9.75823 8.70785 9.84407 8.8634C9.92992 9.01895 10.0682 9.13898 10.2343 9.20209L15.1843 11.0583L7.25396 19.5624Z" fill="#EAEAFD"/>
</svg>
